<svg xmlns="http://www.w3.org/2000/svg" xmlns:xlink="http://www.w3.org/1999/xlink" viewBox="0 0 67.2 85.2"><defs><style>.cls-1{fill:none;}.cls-2{clip-path:url(#clip-path);}.cls-3{fill:url(#radial-gradient);}.cls-4{fill:#e31d3e;}.cls-5{fill:#fff;}</style><clipPath id="clip-path"><rect class="cls-1" width="67.2" height="67.2"/></clipPath><radialGradient id="radial-gradient" cx="-943" cy="-182.6" r="1" gradientTransform="translate(31726.54 6170.59) scale(33.61)" gradientUnits="userSpaceOnUse"><stop offset="0" stop-color="#1f5493"/><stop offset="0.9" stop-color="#112e51"/><stop offset="1" stop-color="#112e51"/></radialGradient></defs><title>Asset 2</title><g id="Layer_2" data-name="Layer 2"><g id="Layer_1-2" data-name="Layer 1"><g class="cls-2"><rect class="cls-3" width="67.2" height="67.2"/></g><polygon class="cls-4" points="1.5 75.2 1.5 79 6.1 79 6.1 80.2 1.5 80.2 1.5 85 0 85 0 73.9 6.8 73.9 6.8 75.2 1.5 75.2"/><path class="cls-4" d="M13.6,80.2a2.77,2.77,0,0,0-.1-.9,1.61,1.61,0,0,0-.4-.7,2.09,2.09,0,0,0-.6-.4,1.88,1.88,0,0,0-.8-.2,2.11,2.11,0,0,0-1.6.6,2.64,2.64,0,0,0-.7,1.6Zm1.2,3.7a2.65,2.65,0,0,1-.6.5,2,2,0,0,1-.8.4,2.35,2.35,0,0,1-.8.2c-.3,0-.6.1-.9.1a4,4,0,0,1-1.5-.3A3.17,3.17,0,0,1,9,84a5.67,5.67,0,0,1-.8-1.3,4.84,4.84,0,0,1-.3-1.8,3.65,3.65,0,0,1,.3-1.5,3.46,3.46,0,0,1,.7-1.2,4.44,4.44,0,0,1,1.1-.8,4,4,0,0,1,1.5-.3,5.07,5.07,0,0,1,1.3.2,3.59,3.59,0,0,1,1,.7,4.13,4.13,0,0,1,.7,1.1,3.42,3.42,0,0,1,.2,1.5c0,.2,0,.4-.1.4s-.1.1-.3.1H9.1a5.07,5.07,0,0,0,.2,1.3,1.93,1.93,0,0,0,.5.9,2.18,2.18,0,0,0,.8.5,3,3,0,0,0,1,.2,2.77,2.77,0,0,0,.9-.1,3.33,3.33,0,0,0,.6-.3,1.38,1.38,0,0,0,.4-.3.5.5,0,0,1,.6,0Z"/><path class="cls-4" d="M21.6,79c-.3-.3-.5-.6-.8-.7a3,3,0,0,0-1-.2,2.14,2.14,0,0,0-1.7.8,3.59,3.59,0,0,0-.6,2.2,5.28,5.28,0,0,0,.1,1.3,1.88,1.88,0,0,0,.4.9,2.65,2.65,0,0,0,.6.5,1.88,1.88,0,0,0,.8.2,2.38,2.38,0,0,0,1.2-.3,3.82,3.82,0,0,0,.9-.9V79ZM23,73.6V85h-.8c-.2,0-.3-.1-.4-.3l-.1-.9a5.24,5.24,0,0,1-1.1,1,3.31,3.31,0,0,1-1.5.4,2.38,2.38,0,0,1-1.2-.3,1.76,1.76,0,0,1-.9-.8,2.73,2.73,0,0,1-.6-1.2,8.81,8.81,0,0,1-.2-1.7,7.77,7.77,0,0,1,.2-1.6,5.39,5.39,0,0,1,.7-1.3,2.44,2.44,0,0,1,1.1-.9,3.53,3.53,0,0,1,1.4-.3,3.73,3.73,0,0,1,1.2.2,5.5,5.5,0,0,1,.9.7V73.7H23Z"/><path class="cls-4" d="M28.6,79.3a3.59,3.59,0,0,0,1.1-.2,5.94,5.94,0,0,0,.8-.4A1.79,1.79,0,0,0,31,78a2.92,2.92,0,0,0,.2-.9,1.75,1.75,0,0,0-.6-1.5,3.31,3.31,0,0,0-1.9-.5H27.1v4.2ZM33.7,85H32.4a.6.6,0,0,1-.6-.3l-2.9-3.9-.3-.3a.75.75,0,0,0-.5-.1H27V85H25.5V74h3.1a9,9,0,0,1,1.8.2,3.1,3.1,0,0,1,1.3.6,2.29,2.29,0,0,1,.7,1,2.74,2.74,0,0,1,.2,1.3,3.59,3.59,0,0,1-.2,1.1,4.05,4.05,0,0,1-.5.9,2.18,2.18,0,0,1-.9.7,3.58,3.58,0,0,1-1.1.4,1.21,1.21,0,0,1,.5.5Z"/><path class="cls-4" d="M41,80.9l-1.7-4.5c-.1-.1-.1-.3-.2-.5s-.1-.4-.2-.6a6.21,6.21,0,0,1-.3,1l-1.7,4.5H41ZM44.1,85H42.9a.37.37,0,0,1-.3-.1c-.1-.1-.1-.2-.2-.3l-1-2.7h-5l-1,2.7a.22.22,0,0,1-.2.2.37.37,0,0,1-.3.1H33.7l4.4-11h1.5Z"/><path class="cls-4" d="M57.1,73.9v11H55.8V76.1L52,83a.55.55,0,0,1-.5.3h-.2a.55.55,0,0,1-.5-.3l-3.9-6.9V85H45.6V74H47c.1,0,.1.1.2.2L51,81c.1.1.1.3.2.4s.1.3.2.4c.1-.1.1-.3.2-.4s.1-.3.2-.4l3.7-6.8c.1-.1.1-.2.2-.2h1.4Z"/><path class="cls-4" d="M63.1,79.7a3.59,3.59,0,0,0,1.1-.2A2.18,2.18,0,0,0,65,79a1.79,1.79,0,0,0,.5-.7,2.92,2.92,0,0,0,.2-.9,1.75,1.75,0,0,0-.7-1.6,2.81,2.81,0,0,0-2-.6H61.2v4.5Zm0-5.8a9,9,0,0,1,1.8.2,5.39,5.39,0,0,1,1.3.7,4.44,4.44,0,0,1,.8,1.1,4.05,4.05,0,0,1-.1,2.8,2.84,2.84,0,0,1-.8,1.1,4,4,0,0,1-1.3.7,4.84,4.84,0,0,1-1.8.3H61.2v4.1H59.9v-11Z"/><path class="cls-5" d="M13.8,50.3V37H24.6V32.6H13.8V22.3a1,1,0,0,1,1-1H48.1a4.65,4.65,0,0,1,2.1.5,5.65,5.65,0,0,1,1.4,9.5,5.2,5.2,0,0,1-3.5,1.3H34.3A2.26,2.26,0,0,0,32,34.9h0V37h0V50.3h4.5V38.5a1.4,1.4,0,0,1,1.2-1.4h6.7a.1.1,0,0,1,.1.1l6.9,13.2h4.9L49.2,36.7v-.3a9.8,9.8,0,0,0-1.4-19.5H11.2a2,2,0,0,0-2,2V50.3Z"/><path class="cls-5" d="M11.2,48.4h.6V35H22.6v-.5H11.8V22.3a2.9,2.9,0,0,1,2.9-2.9H49.8v.3c.3.1.6.2,1,.3a7.65,7.65,0,0,1,1.8,12.8,9.91,9.91,0,0,1-1.7,1.1A7.9,7.9,0,0,0,48,18.7H11.3a.1.1,0,0,0-.1.1Zm41.4,0h.5l-5.7-11a2.18,2.18,0,0,1,.4-2.3l.4-.5H48l-2,.1v-.1H36.2v.1l-2-.1a.27.27,0,0,0-.3.3V48.4h.6V38.5a3.63,3.63,0,0,1,2.7-3.4h7.5l.4.1a2.54,2.54,0,0,1,1.2,1.1Zm7,3.9H50.2L43.2,39H38.4V52.3H29.9V33.5l.3-.1A4.18,4.18,0,0,1,32.5,31v-.3H47.9a4.85,4.85,0,0,0,2.1-.8,3.7,3.7,0,0,0-.9-6.2,3.19,3.19,0,0,0-1.4-.3H15.6v7.4H26.4V39H15.7V52.3H7.2V18.8a4,4,0,0,1,4-4H47.9A11.82,11.82,0,0,1,59.7,26.6,12,12,0,0,1,52,37.7Z"/><path class="cls-5" d="M36.3,33.8a3.2,3.2,0,1,1-3.2-3.2,3.29,3.29,0,0,1,3.2,3.2"/></g></g></svg>