<svg id="Layer_1" data-name="Layer 1" xmlns="http://www.w3.org/2000/svg" viewBox="0 0 900.74 73.75"><defs><style>.cls-1{fill:#fff;}</style></defs><title>logomark</title><path class="cls-1" d="M56.78,36.69H33.87a1.07,1.07,0,0,0-1.07,1.07V49A1.07,1.07,0,0,0,33.87,50h8.94V64s-2,.68-7.56.68c-6.55,0-15.69-2.39-15.69-22.5S29.08,19.38,38,19.38a36.24,36.24,0,0,1,13.2,2,1.08,1.08,0,0,0,1.28-1.05L55.06,9.52a1,1,0,0,0-.41-0.84c-0.86-.61-6.12-3.56-19.4-3.56-15.3,0-31,6.51-31,37.8s18,36,33.11,36c12.54,0,20.14-5.36,20.14-5.36a0.92,0.92,0,0,0,.35-0.81V37.76A1.07,1.07,0,0,0,56.78,36.69Z" transform="translate(-4.26 -5.13)"/><path class="cls-1" d="M174.88,8.88a1.07,1.07,0,0,0-1.06-1.08h-12.9a1.07,1.07,0,0,0-1.07,1.08V33.81H139.73V8.88a1.07,1.07,0,0,0-1.06-1.08h-12.9a1.07,1.07,0,0,0-1.07,1.08V76.39a1.07,1.07,0,0,0,1.07,1.08h12.9a1.07,1.07,0,0,0,1.06-1.08V47.51h20.11l0,28.88a1.08,1.08,0,0,0,1.07,1.08h12.93a1.07,1.07,0,0,0,1.06-1.08V8.88Z" transform="translate(-4.26 -5.13)"/><ellipse class="cls-1" cx="68.55" cy="12.61" rx="8.32" ry="8.4"/><path class="cls-1" d="M80.21,62.15V31a1.07,1.07,0,0,0-1.07-1.08H66.28a1.23,1.23,0,0,0-1.12,1.2V75.76A1.59,1.59,0,0,0,67,77.46H78.62c1.27,0,1.58-.62,1.58-1.72V62.15Z" transform="translate(-4.26 -5.13)"/><path class="cls-1" d="M223.91,30h-12.8A1.07,1.07,0,0,0,210,31.09V64.2a14.47,14.47,0,0,1-7.87,2.38c-4.62,0-5.84-2.1-5.84-6.62V31.09A1.07,1.07,0,0,0,195.27,30h-13a1.08,1.08,0,0,0-1.07,1.08V62.15c0,13.43,7.48,16.71,17.78,16.71a30,30,0,0,0,15.26-4.67,27.11,27.11,0,0,0,.47,2.75,1.13,1.13,0,0,0,.94.58l8.27,0A1.08,1.08,0,0,0,225,76.41V31.09A1.07,1.07,0,0,0,223.91,30Z" transform="translate(-4.26 -5.13)"/><path class="cls-1" d="M258.91,28.49a24.08,24.08,0,0,0-12.22,3.24V8.88a1.07,1.07,0,0,0-1.06-1.08H232.69a1.07,1.07,0,0,0-1.07,1.08V76.39a1.07,1.07,0,0,0,1.07,1.08h9a1.07,1.07,0,0,0,.94-0.57,21,21,0,0,0,.55-3.11s5.29,5,15.31,5c11.76,0,18.5-6,18.5-26.78S266.19,28.49,258.91,28.49Zm-5.05,38a15.35,15.35,0,0,1-7.45-2.15V43A17.07,17.07,0,0,1,253,40.86c4.61-.41,9.05,1,9.05,12C262.08,64.43,260.07,66.72,253.86,66.53Z" transform="translate(-4.26 -5.13)"/><path class="cls-1" d="M117.29,29.9h-9.68V17.12a0.67,0.67,0,0,0-.81-0.73H93.6a0.67,0.67,0,0,0-.79.72V30.32S86.2,31.92,85.75,32a1.07,1.07,0,0,0-.77,1v8.3A1.07,1.07,0,0,0,86,42.46h6.76v20c0,14.84,10.41,16.29,17.43,16.29a29.45,29.45,0,0,0,7.68-1.26,1,1,0,0,0,.61-1V67.36a1.09,1.09,0,0,0-1.07-1.08c-0.56,0-2,.23-3.49.23-4.75,0-6.36-2.21-6.36-5.07s0-19,0-19h9.68a1.07,1.07,0,0,0,1.07-1.08V31A1.07,1.07,0,0,0,117.29,29.9Z" transform="translate(-4.26 -5.13)"/><path class="cls-1" d="M312.5,36.58a39.78,39.78,0,0,0-13.6,2.27V33.41A36.51,36.51,0,0,1,312.5,31c13.6,0,17.14,6.17,17.14,15.24v31H326.1l-1.36-3.63A23.79,23.79,0,0,1,311,78.12c-11.88,0-15.87-7-15.87-14.6s4.26-13.42,16.14-14.15l12-.73V46.1C323.29,39.48,320.93,36.58,312.5,36.58Zm-1.63,17.68c-6.44.64-9.25,4-9.25,9.25,0,4.08,1,9,9.61,9,4.9,0,8.16-1.36,12.06-3.63V53.09Z" transform="translate(-4.26 -5.13)"/><path class="cls-1" d="M368.54,44.29c0-5.89-3.45-7.71-9.07-7.71-5.9,0-8.89,1-12.24,2.9V77.21h-6.35V31.86h3.54l1.36,3.81A22.58,22.58,0,0,1,359.47,31c10.79,0,15.42,4.9,15.42,13.6V77.21h-6.35V44.29Z" transform="translate(-4.26 -5.13)"/><path class="cls-1" d="M416.05,34.68V9.19h6.35v68h-3.54l-1.36-3.72c-4.72,3-9.25,4.63-14.15,4.63-14.6,0-18.59-10.52-18.59-23.58S388.76,31,403.36,31A23.67,23.67,0,0,1,416.05,34.68ZM391.11,54.54c0,9,1.36,18,12.24,18,5.89,0,9.16-1,12.7-2.9V39.48c-3.54-1.9-6.8-2.9-12.7-2.9C392.47,36.58,391.11,45.56,391.11,54.54Z" transform="translate(-4.26 -5.13)"/><path class="cls-1" d="M448.06,43.2c0-19.32,6.44-34.91,26.75-34.91,9.43,0,15.33,1.9,19,3.81v6.17c-7.07-2.9-11.7-4.26-19-4.26-14.87,0-20.22,12.79-20.22,29.2s5.35,29.2,20.22,29.2c5.17,0,11.52-.45,14.69-2V47.19H475.27V41.48h20.4V74.4c-4.63,2.18-11.34,3.72-20.86,3.72C454.5,78.12,448.06,62.52,448.06,43.2Z" transform="translate(-4.26 -5.13)"/><path class="cls-1" d="M526,78.12c-15.51,0-19-9.7-19-23.58S510.45,31,526,31s19,9.7,19,23.58S541.55,78.12,526,78.12Zm0-41.53c-12,0-12.7,7.71-12.7,18s0.72,18,12.7,18c11.79,0,12.7-7.71,12.7-18S537.74,36.58,526,36.58Z" transform="translate(-4.26 -5.13)"/><path class="cls-1" d="M557.33,31.86L570.3,69l13-37.18h7L572.57,78.12H568L550.35,31.86h7Z" transform="translate(-4.26 -5.13)"/><path class="cls-1" d="M613.74,31C629.15,31,631,41.48,631,54.54v2.9H601c0.36,7.89,2.45,15.05,12.7,15.05,6.53,0,10.52-.64,15-2.54v5.44a36.73,36.73,0,0,1-15,2.72c-15.33,0-19-10.52-19-23.58S598.41,31,613.74,31ZM601,52.27h23.58c0-8.07-.45-15.69-10.88-15.69S601.31,44.11,601,52.27Z" transform="translate(-4.26 -5.13)"/><path class="cls-1" d="M666.24,37.31a17.52,17.52,0,0,0-5.44-.73c-6.17,0-9.79,1-13.15,2.9V77.21H641.3V31.86h3.54l1.36,3.81A24.6,24.6,0,0,1,660.8,31a33,33,0,0,1,5.44.45v5.9Z" transform="translate(-4.26 -5.13)"/><path class="cls-1" d="M701.33,44.29c0-5.89-3.45-7.71-9.07-7.71-5.89,0-8.89,1-12.24,2.9V77.21h-6.35V31.86h3.54l1.36,3.81A22.58,22.58,0,0,1,692.26,31c10.79,0,15.42,4.9,15.42,13.6V77.21h-6.35V44.29Z" transform="translate(-4.26 -5.13)"/><path class="cls-1" d="M772,44.29c0-5.89-3.45-7.71-8.62-7.71a23.39,23.39,0,0,0-12.33,3,19.25,19.25,0,0,1,.54,4.72V77.21h-6.35V44.29c0-5.89-3.45-7.71-8.62-7.71a22.91,22.91,0,0,0-11.79,2.72V77.21h-6.35V31.86H722l1.36,3.72A22.79,22.79,0,0,1,736.61,31c6.08,0,10.34,1.72,12.7,5.17C754,32.86,758.83,31,763.36,31c9.7,0,15,4.53,15,13.6V77.21H772V44.29Z" transform="translate(-4.26 -5.13)"/><path class="cls-1" d="M807.25,31c15.42,0,17.23,10.52,17.23,23.58v2.9H794.55c0.36,7.89,2.45,15.05,12.7,15.05,6.53,0,10.52-.64,15-2.54v5.44a36.73,36.73,0,0,1-15,2.72c-15.33,0-19-10.52-19-23.58S791.92,31,807.25,31Zm-12.7,21.31h23.58c0-8.07-.45-15.69-10.88-15.69S794.82,44.11,794.55,52.27Z" transform="translate(-4.26 -5.13)"/><path class="cls-1" d="M862.47,44.29c0-5.89-3.45-7.71-9.07-7.71-5.89,0-8.89,1-12.24,2.9V77.21h-6.35V31.86h3.54l1.36,3.81A22.58,22.58,0,0,1,853.4,31c10.79,0,15.42,4.9,15.42,13.6V77.21h-6.35V44.29Z" transform="translate(-4.26 -5.13)"/><path class="cls-1" d="M903.19,77.75a20.12,20.12,0,0,1-4.08.36c-7.53,0-14.51-3.45-14.51-12.33V36.85h-9.07V34l9.07-2.63V19.17l6.35-1.81V31.86H905v5H890.94v28.2c0,5.53,3,7.8,8.71,7.8,1.18,0,2.36-.09,3.54-0.18v5.08Z" transform="translate(-4.26 -5.13)"/></svg>